<?xml version="1.0" encoding="utf-8"?>
<!-- Generator: Adobe Illustrator 23.0.0, SVG Export Plug-In . SVG Version: 6.00 Build 0)  -->
<svg version="1.1" id="Layer_1" xmlns="http://www.w3.org/2000/svg" xmlns:xlink="http://www.w3.org/1999/xlink" x="0px" y="0px"
	 viewBox="0 0 180 180" style="enable-background:new 0 0 180 180;" xml:space="preserve">
<style type="text/css">
	.st0{fill:#FFFFFF;}
	.st1{fill:#ED1C24;}
</style>
<ellipse transform="matrix(0.9952 -0.0976 0.0976 0.9952 -8.3579 9.218)" class="st0" cx="90" cy="90" rx="90" ry="90"/>
<path d="M90,174c40.21,0,73.82-28.25,82.06-66H7.94C16.18,145.74,49.79,174,90,174z"/>
<path class="st1" d="M90,6C49.79,6,16.18,34.26,7.94,72h164.12C163.82,34.26,130.21,6,90,6z"/>
<g>
	<path d="M8.59,82.8h3.48l3.85,6.19l3.85-6.19h3.48v14.65h-3.2v-9.56l-4.12,6.25h-0.08l-4.08-6.2v9.5H8.59V82.8z"/>
	<path d="M27.67,90.16v-0.04c0-4.16,3.29-7.57,7.81-7.57c4.52,0,7.76,3.37,7.76,7.53v0.04c0,4.17-3.28,7.58-7.8,7.58
		C30.91,97.7,27.67,94.33,27.67,90.16z M39.87,90.16v-0.04c0-2.51-1.84-4.6-4.44-4.6c-2.59,0-4.39,2.05-4.39,4.56v0.04
		c0,2.51,1.84,4.6,4.44,4.6C38.07,94.73,39.87,92.67,39.87,90.16z"/>
	<path d="M50.46,85.77H46V82.8h12.13v2.97h-4.45v11.67h-3.22V85.77z"/>
	<path d="M60.91,90.16v-0.04c0-4.16,3.28-7.57,7.79-7.57c4.53,0,7.77,3.37,7.77,7.53v0.04c0,4.17-3.29,7.58-7.81,7.58
		C64.15,97.7,60.91,94.33,60.91,90.16z M73.1,90.16v-0.04c0-2.51-1.84-4.6-4.43-4.6c-2.6,0-4.39,2.05-4.39,4.56v0.04
		c0,2.51,1.84,4.6,4.43,4.6C71.3,94.73,73.1,92.67,73.1,90.16z"/>
	<path d="M80.91,82.8h6.7c1.86,0,3.3,0.53,4.26,1.49c0.82,0.82,1.26,1.97,1.26,3.35v0.04c0,2.37-1.28,3.85-3.13,4.54l3.58,5.23
		h-3.77l-3.14-4.69h-0.05h-2.48v4.69h-3.22V82.8z M87.39,89.92c1.56,0,2.46-0.84,2.46-2.07V87.8c0-1.38-0.96-2.09-2.52-2.09h-3.2
		v4.21H87.39z"/>
	<path d="M96.96,90.16v-0.04c0-4.16,3.13-7.57,7.64-7.57c2.76,0,4.41,0.92,5.77,2.26l-2.05,2.36c-1.13-1.03-2.28-1.65-3.74-1.65
		c-2.47,0-4.25,2.05-4.25,4.56v0.04c0,2.51,1.74,4.6,4.25,4.6c1.67,0,2.71-0.67,3.85-1.71l2.05,2.07c-1.51,1.61-3.18,2.62-6.01,2.62
		C100.15,97.7,96.96,94.37,96.96,90.16z"/>
	<path d="M118.53,91.67l-5.62-8.88h3.77l3.49,5.88l3.56-5.88h3.65l-5.62,8.81v5.84h-3.22V91.67z"/>
	<path d="M129.05,90.16v-0.04c0-4.16,3.14-7.57,7.64-7.57c2.76,0,4.41,0.92,5.78,2.26l-2.05,2.36c-1.13-1.03-2.28-1.65-3.75-1.65
		c-2.47,0-4.25,2.05-4.25,4.56v0.04c0,2.51,1.73,4.6,4.25,4.6c1.68,0,2.7-0.67,3.85-1.71l2.05,2.07c-1.5,1.61-3.18,2.62-6,2.62
		C132.25,97.7,129.05,94.37,129.05,90.16z"/>
	<path d="M146.71,82.8h3.22v11.72h7.3v2.93h-10.53V82.8z"/>
	<path d="M161.24,82.8h11.04v2.87h-7.84v2.97h6.9v2.87h-6.9v3.07h7.95v2.87h-11.15V82.8z"/>
</g>
<g>
	<path class="st0" d="M84.21,58.22V40.14h8.89v-4.3h-8.89l0.01-14.95c1.6-0.18,4.57-0.37,8.94-0.22v-4.19
		c-1.17-0.06-2.32-0.11-3.5-0.11c-3.25,0-6.46,0.25-9.61,0.72v45.44H93.1v-4.31H84.21z"/>
	<path class="st0" d="M132.28,58.17h-8.05V24.22c-1.37-0.72-2.87-1.4-4.28-2.03v40.34h12.33V58.17z"/>
	<path class="st0" d="M48.72,28.06l0,24.9l-5.75-20.34c-0.18,0.16-6.25,21.2-6.25,21.2V38.35c-1.46,1.57-2.85,3.2-4.17,4.91l0,19.26
		h4.93l5.14-16.39l4.8,16.39h5.47l0-37.09C51.46,26.27,50.07,27.14,48.72,28.06z"/>
	<path class="st0" d="M63.19,62.49V44.46h6.97v18.03h4.16V17.82c-1.41,0.29-2.79,0.64-4.16,1.02v21.33h-6.97V21.22
		c-1.41,0.57-2.79,1.18-4.16,1.85v39.42H63.19z"/>
	<path class="st0" d="M98.39,16.77v45.73h4.16V44.46h8.03v18.07h4.17V20.68C109.53,18.7,104.04,17.38,98.39,16.77z M102.55,40.17
		V21.69c1.93,0.4,4.82,1.05,8.03,2.01v16.46H102.55z"/>
	<path class="st0" d="M136.49,62.49h4.16v-11l4.1-11.69c-1.07-1.2-2.17-2.37-3.3-3.5l-2.87,7.65l-5.06-14.41
		c-1.78-1.31-3.62-2.53-5.51-3.66l8.48,25.37V62.49z"/>
</g>
<g>
	<path class="st0" d="M48.87,128.57v-11.84H32.74v20.53c1.33,1.63,2.71,3.21,4.17,4.72v-9.2l0.05,0.14l3.83-1.4l3.61,17.23
		c1.62,1.29,3.29,2.5,5.02,3.65l-4.67-22.33L48.87,128.57z M44.7,125.66l-7.79,2.85v-7.71h7.79V125.66z"/>
	<path class="st0" d="M122.68,157v-40.27h-4.18v42.18C119.91,158.31,121.31,157.68,122.68,157z"/>
	<path class="st0" d="M67.28,156.79c-4.06-1.24-7.05-2.78-8.46-3.59v-13.71h8.46v-4.16h-8.46V120.9h8.46v-4.17H54.66v38.72l0.9,0.62
		c3.75,2,7.66,3.68,11.72,5.01V156.79z"/>
	<path class="st0" d="M98.55,164.23V143.6h10.33v18.63c1.41-0.38,2.79-0.8,4.17-1.25v-44.25H94.38v47.86
		C95.79,164.5,97.18,164.39,98.55,164.23z M98.55,120.9h10.33v18.54H98.55V120.9z"/>
	<path class="st0" d="M132.84,150.85v-17.13l0.04,0.14l3.12-1.13l4.53,11.79c1.11-1.05,2.18-2.13,3.22-3.24l-3.85-9.98l4.88-1.79
		v-12.77h-16.13v36.91C130.09,152.76,131.47,151.83,132.84,150.85z M132.84,120.9h7.79v5.69l-7.79,2.85V120.9z"/>
	<path class="st0" d="M76.26,163.42V143.6h12.77v-26.87H76.26h-4.17v45.75C73.47,162.83,74.85,163.15,76.26,163.42z M76.26,120.9
		h8.59v18.54h-8.59V120.9z"/>
</g>
</svg>
